# xmcd
#
# Track frame offsets:
#	150
#	13376
#	32017
#	47477
#	59136
#	78502
#	92996
#	108143
#	120845
#	139262
#	159536
#
# Disc length: 2268 seconds
#
# Revision: 1
# Processed by: cddbd v1.5.2PL0 Copyright (c) Steve Scherf et al.
# Submitted via: audiograbber 1.83.01
#
DISCID=8e08da0b
DTITLE=Hard Ryde - Stages
DYEAR=2008
DGENRE=Bluegrass
TTITLE0=Hold Onto Your Heart
TTITLE1=Wintertime
TTITLE2=If You Don't Go
TTITLE3=Lonesome Road Blues
TTITLE4=Weak in the Knees
TTITLE5=Blue-Eyed Boston Boy
TTITLE6=Past the Point of Rescue
TTITLE7=Turkeyville Road
TTITLE8=Likewise
TTITLE9=Fields Have Turned Brown
TTITLE10=Ridin' on the Midnight Train
EXTD=
EXTT0=
EXTT1=
EXTT2=
EXTT3=
EXTT4=
EXTT5=
EXTT6=
EXTT7=
EXTT8=
EXTT9=
EXTT10=
PLAYORDER=
